<?xml version="1.0" encoding="utf-8" ?>
<svg xmlns="http://www.w3.org/2000/svg" xmlns:xlink="http://www.w3.org/1999/xlink" width="16" height="16">
	<defs>
		<clipPath id="clip_0">
			<rect x="-1295" y="-1167" width="1400" height="1229" clip-rule="evenodd"/>
		</clipPath>
	</defs>
	<g clip-path="url(#clip_0)">
		<path fill="rgb(204,204,204)" stroke="none" d="M1.77856 3.46833C0.698406 3.46833 0 2.69224 0 1.73238C0 0.752899 0.719516 0 1.82254 0C2.92556 0 3.6011 0.752899 3.62221 1.73238C3.62221 2.69224 2.92556 3.46833 1.77856 3.46833ZM12.5801 16L16 16L16 9.40054C16 6.11418 14.3129 4.58519 12.0629 4.58519C10.2175 4.58519 9.11446 5.65923 8.6641 6.38715L8.59549 6.38715L8.43892 4.83675L5.46762 4.83675C5.51336 5.83943 5.55734 7.00446 5.55734 8.39786L5.55734 15.9982L8.979 15.9982L8.979 9.56289C8.979 9.24353 9.00187 8.92239 9.09335 8.69581C9.3414 8.05888 9.90258 7.39697 10.8473 7.39697C12.084 7.39697 12.5801 8.37467 12.5801 9.81445L12.5801 16ZM3.50962 16L0.0897196 16L0.0897196 4.83854L3.50962 4.83854L3.50962 16Z" fill-rule="evenodd"/>
	</g>

</svg>