<?xml version="1.0" encoding="utf-8" ?>
<svg xmlns="http://www.w3.org/2000/svg" xmlns:xlink="http://www.w3.org/1999/xlink" width="15" height="10">
	<defs>
		<clipPath id="clip_0">
			<rect x="-910" y="-706" width="1400" height="800" clip-rule="evenodd"/>
		</clipPath>
	</defs>
	<g clip-path="url(#clip_0)">
		<path fill="rgb(235,186,7)" stroke="none" d="M0.789474 0.0822488C0.921838 0.0293746 1.0661 0 1.21781 0L13.7822 0C13.9339 0 14.0782 0.0293746 14.2105 0.0822488L7.85104 5.68682C7.62943 5.88217 7.3833 5.88217 7.16095 5.68682L0.789474 0.0822488ZM0 0.996259C0 0.941195 0.00471217 0.886134 0.0125644 0.833333L4.73684 4.88224L0.0942333 9.16667C0.0345532 9.02939 0 8.87853 0 8.72013L0 0.996259ZM14.9876 0.833333L10.2632 4.87923L14.9118 9.16667C14.9693 9.0308 15 8.88209 15 8.72587L15 0.996576C15 0.941474 14.9953 0.886374 14.9874 0.833536L14.9876 0.833333ZM8.20429 6.71431L9.17143 5.83333L13.4211 9.99405C13.3815 9.99777 13.339 10 13.298 10L0.918427 10C0.875198 10 0.831238 9.99851 0.789474 9.99405L5.05666 5.83928L6.0238 6.71431C6.63852 7.27087 7.58957 7.27162 8.20429 6.71431Z" fill-rule="evenodd"/>
	</g>

</svg>