<?xml version="1.0" encoding="utf-8" ?>
<svg xmlns="http://www.w3.org/2000/svg" xmlns:xlink="http://www.w3.org/1999/xlink" width="14" height="14">
	<defs>
		<clipPath id="clip_0">
			<rect x="-1153" y="-704" width="1400" height="800" clip-rule="evenodd"/>
		</clipPath>
	</defs>
	<g clip-path="url(#clip_0)">
		<path fill="rgb(235,186,7)" stroke="none" d="M6.55905 10.3455C6.27299 9.90591 5.26247 8.80239 4.79403 8.29759C4.51866 8.01763 4.15308 7.86406 3.76345 7.86406C3.39184 7.86406 3.03896 8.0054 2.76829 8.26226L0.493909 9.95695C0.46985 9.97462 0.447125 9.99432 0.425738 10.0161C0.151043 10.296 0 10.6684 0 11.0645C0 11.4607 0.151045 11.8331 0.426405 12.1123L1.81923 13.5291C2.24897 13.966 3.60512 14 4.01011 14C4.44454 14 4.89767 13.9687 5.3214 13.9103C6.84121 13.6997 9.06686 13.0276 11.0391 11.0223C15.1916 6.80115 13.941 2.3695 13.3682 1.7871L12.0369 0.433528C11.7622 0.153567 11.3959 0 11.005 0C10.6153 0 10.2491 0.153568 9.97305 0.434207C9.95568 0.453234 9.93964 0.471579 9.9256 0.489926L8.19788 2.74107C7.9379 3.01626 7.79486 3.38049 7.79486 3.76576C7.79486 4.1619 7.94591 4.53429 8.22394 4.81764L10.3426 6.85134C9.41964 9.07604 7.25416 10.1252 6.55917 10.3454L6.55905 10.3455Z"/>
	</g>

</svg>