<?xml version="1.0" encoding="utf-8" ?>
<svg xmlns="http://www.w3.org/2000/svg" xmlns:xlink="http://www.w3.org/1999/xlink" width="34" height="54">
	<defs>
		<clipPath id="clip_0">
			<rect x="-42.690002" y="-34.98" width="1358" height="776" clip-rule="evenodd"/>
		</clipPath>
	</defs>
	<g clip-path="url(#clip_0)">
		<path fill="rgb(235,186,7)" stroke="none" transform="matrix(0.970001 9.11281e-10 -9.11281e-10 0.970001 0.242168 1.05366)" d="M12.4547 52.6729C12.4338 52.6666 12.4129 52.6687 12.392 52.6582L12.3921 52.6591C4.82851 50.8266 0 44.4059 0 35.5157C0 29.5502 2.10207 23.9069 5.64564 19.9935L1.7176 12.3191C1.46896 11.8302 1.54836 11.2368 1.92236 10.8336C2.29426 10.4303 2.8793 10.3029 3.38493 10.5118L8.13615 12.4863L5.57248 4.60323C5.39906 4.06835 5.58501 3.48331 6.03632 3.14692C6.48556 2.81262 7.09982 2.80217 7.56366 3.12185L12.1331 6.28309L15.7039 0.612303C15.9379 0.236235 16.3453 0.00640288 16.7882 0.000134103C17.2103 -0.00612398 17.647 0.206977 17.8935 0.570529L21.9448 6.50661L26.3659 3.15319C26.8109 2.81471 27.421 2.798 27.887 3.10931C28.3508 3.42067 28.5639 3.99523 28.4198 4.53428L26.2572 12.6136L30.5154 10.5431C31.0022 10.3049 31.5872 10.3926 31.9842 10.7645C32.3812 11.1364 32.5044 11.7131 32.2997 12.2166L28.9337 20.4404C28.9128 20.4926 28.8835 20.5386 28.8564 20.5887C32.1053 24.4644 33.9732 29.7838 33.9732 35.5129C33.9732 46.0976 27.1471 53.2078 16.9866 53.2078C15.3861 53.2078 13.8776 53.0134 12.4547 52.6729ZM19.8534 8.08767L16.8572 3.69583L14.2894 7.77434L15.1795 8.39068L15.6412 7.38987C15.8543 6.9281 16.3161 6.63141 16.8238 6.62932L16.8301 6.62932C17.3378 6.62932 17.7995 6.92181 18.0147 7.37938L18.7439 8.92968L19.8534 8.08767ZM9.26672 7.47967L14.0681 10.806L12.4656 14.2827L11.3248 13.8084L9.26672 7.47967ZM23.1607 14.0591C23.1566 14.08 23.1566 14.0988 23.1503 14.1218L21.5519 14.899L19.8825 11.3534L24.9032 7.54861L23.1607 14.0591ZM14.3146 16.5248C14.02 17.1642 13.2741 17.4546 12.6243 17.185L5.68097 14.3002L7.63242 18.1154C7.89569 17.9001 8.16311 17.6912 8.43891 17.4927C9.02813 17.0727 9.84299 17.2106 10.265 17.7978C10.6871 18.3849 10.5492 19.2018 9.96208 19.6239C5.52643 22.7936 2.74546 28.7045 2.63263 35.1145L3.79851 33.9194L3.8006 33.9194L8.92372 28.6667L6.91375 26.7153C6.39559 26.2117 6.38305 25.3823 6.88659 24.8641C7.39012 24.3459 8.21959 24.3334 8.73775 24.8369L10.7519 26.7926L15.5637 21.8595L14.517 20.8692C13.9904 20.3719 13.9675 19.5424 14.4647 19.018C14.9599 18.4936 15.7914 18.4706 16.3159 18.9678L17.4066 20C17.9143 19.5612 18.6748 19.5633 19.1637 20.0397C19.6443 20.5098 19.6673 21.2453 19.2703 21.7635L23.6768 25.9318L24.7173 24.8641C25.2208 24.3459 26.0503 24.3355 26.5684 24.8411C27.0866 25.3446 27.095 26.1741 26.5914 26.6923L25.5781 27.7307L28.6244 30.6098C29.1488 31.1071 29.1718 31.9345 28.6745 32.461C28.4176 32.7326 28.0707 32.8705 27.7239 32.8705C27.4021 32.8705 27.0783 32.7514 26.8255 32.5132L23.752 29.6069L18.8357 34.6507L23.2735 38.961L26.7899 35.3652C27.2935 34.8512 28.125 34.8408 28.6411 35.3464C29.1572 35.8499 29.1655 36.6794 28.6599 37.1976L25.1498 40.785L27.1953 42.7719C27.7155 43.2755 27.728 44.1049 27.2245 44.6231C26.9675 44.8864 26.6249 45.0201 26.2843 45.0201C25.9563 45.0201 25.6262 44.8968 25.3733 44.6503L23.3195 42.6549L19.1053 46.9653L19.8073 47.6464C20.3255 48.1499 20.338 48.9794 19.8345 49.4976C19.5774 49.7608 19.2348 49.8945 18.8942 49.8945C18.5662 49.8945 18.2361 49.7713 17.9833 49.5247L17.2729 48.8331L15.6098 50.5318C16.061 50.5652 16.5186 50.5903 16.9867 50.5903C25.7137 50.5903 31.3551 44.6729 31.3551 35.5131C31.3551 29.1422 28.6663 23.1459 24.3434 19.8594C23.7667 19.4227 23.6539 18.6016 24.0926 18.0249C24.5293 17.4482 25.3526 17.3375 25.9271 17.7742C26.253 18.0228 26.5706 18.2819 26.8778 18.5535L28.5806 14.3957L21.5042 17.8327C21.1908 17.9873 20.8272 18.0061 20.4971 17.8912C20.167 17.7763 19.8975 17.5297 19.747 17.2143L16.8428 11.0402L14.3146 16.5248ZM16.9553 32.8195L21.8465 27.8008L17.461 23.6534L12.624 28.6115L16.9553 32.8195ZM15.129 34.6938L10.9231 39.0104L6.58762 34.8004L10.7977 30.4837L15.129 34.6938ZM12.7996 40.8364L17.0076 36.5176L21.4413 40.8259L17.227 45.1363L12.7996 40.8364ZM9.09315 40.8865L4.7577 36.6764L2.96502 38.5152C2.93159 38.5486 2.88771 38.5612 2.85219 38.5904C3.21992 40.9931 4.03893 43.095 5.22989 44.8479L9.09315 40.8865ZM10.9733 42.7107L6.92831 46.8601C8.44092 48.3143 10.3005 49.3883 12.4734 49.9942L15.3943 47.0064L10.9733 42.7107Z" fill-rule="evenodd"/>
	</g>

</svg>